<svg version="1.0" xmlns="http://www.w3.org/2000/svg"
 width="80.000000pt" height="60.000000pt" viewBox="0 0 80.000000 60.000000"
 preserveAspectRatio="xMidYMid meet"
>
  <g transform="translate(0.000000,60.000000) scale(0.100000,-0.100000)"
  fill="#5061FC" stroke="none">
  <path d="M51 578 c-51 -27 -47 -108 5 -129 17 -6 151 -9 360 -7 373 3 368 2
  368 73 0 71 5 70 -372 73 -255 1 -343 -1 -361 -10z"/>
  <path d="M51 368 c-51 -27 -47 -108 5 -129 17 -6 151 -9 360 -7 373 3 368 2
  368 73 0 71 5 70 -372 73 -255 1 -343 -1 -361 -10z"/>
  <path d="M51 158 c-51 -27 -47 -108 5 -129 17 -6 151 -9 360 -7 373 3 368 2
  368 73 0 71 5 70 -372 73 -255 1 -343 -1 -361 -10z"/>
  </g>
</svg>
